<mxfile host="app.diagrams.net" modified="2024-07-22T06:54:43.128Z" agent="Mozilla/5.0 (Windows NT 10.0; Win64; x64) AppleWebKit/537.36 (KHTML, like Gecko) Chrome/126.0.0.0 Safari/537.36" version="24.7.1" etag="FrXnlqJ2pVLE3A7kIeZ8" type="github">
  <diagram name="第 1 页" id="-oNV7TRQsVN0GJ4g2fmO">
    <mxGraphModel>
      <root>
        <mxCell id="0" />
        <mxCell id="1" parent="0" />
      </root>
    </mxGraphModel>
  </diagram>
</mxfile>
